<?xml version="1.0" encoding="utf-8"?>
<!-- Generator: Adobe Illustrator 16.0.0, SVG Export Plug-In . SVG Version: 6.00 Build 0)  -->
<!DOCTYPE svg PUBLIC "-//W3C//DTD SVG 1.1//EN" "http://www.w3.org/Graphics/SVG/1.1/DTD/svg11.dtd">
<svg version="1.1" id="Layer_1" xmlns="http://www.w3.org/2000/svg" xmlns:xlink="http://www.w3.org/1999/xlink" x="0px" y="0px"
	 width="1417.32px" height="1417.32px" viewBox="0 0 1417.32 1417.32" enable-background="new 0 0 1417.32 1417.32"
	 xml:space="preserve">
<title>Artboard 2</title>
<g>
	<g>
		<path fill-rule="evenodd" clip-rule="evenodd" fill="#EF3724" d="M1415.555,683.18c0,16.456,0,32.912,0,49.367
			c-0.463,2.522-1.242,5.034-1.336,7.57c-1.621,41.897-7.277,83.256-16.451,124.138c-21.314,94.959-60.673,181.742-117.791,260.482
			c-45.511,62.737-99.886,116.682-162.955,161.478c-73.363,52.107-153.759,89.327-241.483,110.286
			c-38.127,9.113-76.59,15.709-115.756,18.053c-9.933,0.593-19.826,1.827-29.738,2.767c-14.845,0-29.688,0-44.534,0
			c-2.521-0.431-5.027-0.982-7.564-1.277c-35.653-4.143-71.682-6.25-106.897-12.763c-84.697-15.656-163.449-47.484-236.65-93.008
			c-72.46-45.067-134.443-101.733-186.816-169.025c-45.542-58.512-80.586-122.877-105.73-192.6
			C21.13,891.188,7.806,832.046,3.103,771.038C2.358,761.371,1.049,751.745,0,742.103c0-21.765,0-43.529,0-65.292
			c0.471-2.523,1.16-5.024,1.375-7.569C2.736,653.158,3.393,636.99,5.4,620.99c4.906-39.127,13.109-77.567,24.271-115.442
			c21.117-71.651,53.173-138.05,95.411-199.418c36.802-53.467,80.424-100.865,130.351-142.473
			c31.175-25.976,64.199-49.238,99.316-69.424c48.948-28.135,100.506-50.274,154.825-65.927
			C553.056,15.773,597.197,7.01,642.314,3.271c11.23-0.929,22.438-2.172,33.652-3.271c21.738,0,43.476,0,65.212,0
			c1.461,0.42,2.897,1.074,4.384,1.224c22.086,2.259,44.264,3.82,66.254,6.784c60.012,8.087,117.707,24.883,173.309,48.689
			c59.638,25.533,114.862,58.569,165.38,99.417c65.051,52.604,119.625,114.466,162.863,186.086
			c35.694,59.128,62.43,122.203,79.425,189.267c9.891,39.024,16.882,78.545,19.646,118.771
			C1413.196,661.238,1414.502,672.199,1415.555,683.18z M707.781,394.797c-132.268,0-264.533-0.007-396.799,0.006
			c-20.416,0.003-35.937,15.147-35.941,35.34c-0.04,185.509-0.041,371.019,0.082,556.529c0.004,4.379,0.863,9.061,2.551,13.084
			c7.197,17.188,21.138,22.778,38.877,22.769c261.309-0.12,522.614-0.077,783.922-0.089c25.182-0.002,39.87-14.732,39.873-40.059
			c0.019-183.121,0.019-366.243-0.003-549.362c0-23.505-14.756-38.216-38.148-38.216
			C970.721,394.796,839.251,394.797,707.781,394.797z"/>
		<path fill-rule="evenodd" clip-rule="evenodd" fill="#EF3724" d="M405.311,479.847c202.253,0,402.454,0,604.275,0
			C908.397,568.374,808.302,655.943,707.5,744.134C607.197,656.411,506.904,568.696,405.311,479.847z"/>
		<path fill-rule="evenodd" clip-rule="evenodd" fill="#EF3724" d="M412.846,949.938c70.125-62.61,139.122-124.213,208.782-186.41
			c10.951,9.503,21.703,18.787,32.396,28.136c9.168,8.014,18.211,16.165,27.404,24.149c17.232,14.968,35.556,14.611,52.677-0.593
			c19.777-17.564,39.736-34.925,60.205-52.888c69.832,62.338,139.435,124.469,210.159,187.605
			C806.848,949.938,610.777,949.938,412.846,949.938z"/>
		<path fill-rule="evenodd" clip-rule="evenodd" fill="#EF3724" d="M345.951,914.529c0-131.272,0-260.687,0-392.31
			c74.54,65.202,148.012,129.466,221.974,194.165C493.993,782.379,420.596,847.895,345.951,914.529z"/>
		<path fill-rule="evenodd" clip-rule="evenodd" fill="#EF3724" d="M1068.678,522.396c0,130.349,0,259.298,0,389.775
			c-73.99-66.034-146.958-131.159-220.556-196.845C921.515,651.128,994.667,587.137,1068.678,522.396z"/>
	</g>
</g>
</svg>
