<?xml version="1.0" encoding="utf-8"?>
<!-- Generator: Adobe Illustrator 16.0.0, SVG Export Plug-In . SVG Version: 6.00 Build 0)  -->
<!DOCTYPE svg PUBLIC "-//W3C//DTD SVG 1.1//EN" "http://www.w3.org/Graphics/SVG/1.1/DTD/svg11.dtd">
<svg version="1.1" id="Layer_1" xmlns="http://www.w3.org/2000/svg" xmlns:xlink="http://www.w3.org/1999/xlink" x="0px" y="0px"
	 width="1417.32px" height="1417.32px" viewBox="0 0 1417.32 1417.32" enable-background="new 0 0 1417.32 1417.32"
	 xml:space="preserve">
<title>Artboard 2</title>
<g>
	<g>
		<path fill="#EF3724" d="M840.079,1048.952c37.833-8.884,74.463-15.367,109.807-26.18
			c117.491-35.938,183.112-118.693,202.993-240.042c10.03-61.226,13.105-122.698-4.976-183.35
			c-10.403-34.892-26.871-66.573-50.237-94.167c-7.025-8.298-8.838-15.016-5.615-25.835c16.924-56.8,11.553-113.012-7.979-168.042
			c-1.952-5.5-11.558-12.537-16.628-11.807c-23.729,3.419-48.563,5.812-70.285,15.126c-34.474,14.782-66.582,35.178-100.162,52.248
			c-7.181,3.648-17.033,6.053-24.526,4.233c-109.168-26.52-218.11-26.52-327.332-0.31c-7.996,1.918-18.984,0.039-25.995-4.349
			c-47.077-29.462-94.623-57.347-150.397-66.255c-30.157-4.817-33.386-3.091-41.681,26.213
			c-14.765,52.125-17.384,104.414-1.846,157.063c1.453,4.931,0.261,12.868-2.895,16.676
			c-63.594,76.775-74.456,166.239-61.948,261.512c7.999,60.913,25.274,118.26,63.512,167.228
			c48.378,61.954,114.855,91.417,188.677,107.079c20.611,4.368,41.513,7.316,64.308,11.268
			c-23.721,26.079-35.602,55.682-41.729,88.25c-0.895,4.751-6.65,10.224-11.443,12.313
			c-78.559,34.312-149.105,11.295-194.779-63.017c-23.585-38.378-54.741-66.572-100.012-74.634
			c-8.58-1.524-18.019-0.902-26.593,0.958c-18.091,3.941-20.403,13.58-7.081,27.205c4.72,4.83,9.889,9.54,15.636,12.943
			c35.648,21.094,61.157,52.599,73.667,90.87c27.431,83.915,108.28,120.077,194.839,111.604c16.619-1.628,33.159-4.081,52.309-6.479
			c0,47.033,1.193,92.667-0.468,138.191c-0.928,25.482-24.659,37.178-52.025,27.753c-61.559-21.189-119.587-50.021-172.18-88.793
			C97.175,1169.74-6.781,959.711,0.343,696.798C9.506,358.534,256.429,71.256,583.879,11.364
			c380.755-69.638,746.675,187.912,819.447,576.771c66.274,354.121-129.566,703.766-460.933,822.923
			c-39.595,14.235-59.188,0.041-58.994-42.887c0.268-60.015,0.519-120.031,0.993-180.039
			C884.801,1136.62,876.635,1087.952,840.079,1048.952z"/>
	</g>
</g>
</svg>
