<?xml version="1.0" encoding="utf-8"?>
<!-- Generator: Adobe Illustrator 16.0.0, SVG Export Plug-In . SVG Version: 6.00 Build 0)  -->
<!DOCTYPE svg PUBLIC "-//W3C//DTD SVG 1.1//EN" "http://www.w3.org/Graphics/SVG/1.1/DTD/svg11.dtd">
<svg version="1.1" id="Layer_1" xmlns="http://www.w3.org/2000/svg" xmlns:xlink="http://www.w3.org/1999/xlink" x="0px" y="0px"
	 width="1417.32px" height="1417.32px" viewBox="0 0 1417.32 1417.32" enable-background="new 0 0 1417.32 1417.32"
	 xml:space="preserve">
<title>Artboard 2</title>
<g>
	<g>
		<path fill-rule="evenodd" clip-rule="evenodd" fill="#EF3724" d="M0,764.022c0-37.832,0-75.662,0-113.495
			c1.677-8.458,3.974-16.848,4.946-25.386C40.208,315.734,280.378,62.587,588.294,10.433C609.057,6.916,629.833,3.476,650.6,0
			c37.837,0,75.674,0,113.51,0c19.911,3.058,39.86,5.884,59.727,9.208c298.613,49.937,531.897,281.513,583.234,578.971
			c3.739,21.659,6.952,43.409,10.409,65.118c0,36.907,0,73.819,0,110.726c-1.698,9.408-3.938,18.756-5.018,28.23
			c-35.021,307.907-275.499,562.542-580.395,614.281c-23.508,3.988-47.147,7.209-70.727,10.786c-36.914,0-73.826,0-110.741,0
			c-12.124-2.057-24.202-4.441-36.378-6.124c-308.386-42.703-550.014-275.955-604.091-583.363
			C6.401,806.627,3.361,785.297,0,764.022z M755.248,564.309c-0.743-0.104-1.488-0.208-2.233-0.315
			c0-21.425-0.38-42.864,0.171-64.279c0.25-9.695-3.231-12.722-12.772-12.657c-50.286,0.352-100.58,0.473-150.863-0.081
			c-11.302-0.123-13.875,3.989-13.863,14.428c0.238,197.445,0.235,394.888,0.009,592.333c-0.012,9.918,2.479,13.837,13.125,13.735
			c50.285-0.467,100.579-0.434,150.864-0.014c10.168,0.085,13.737-2.936,13.539-13.344c-0.57-29.973-0.191-59.967-0.188-89.952
			c0.009-83.963-0.103-167.923,0.089-251.882c0.06-26.697,5.317-52.464,27.934-69.308c32.558-24.248,69.221-24.392,105.217-9.526
			c33.344,13.767,43.001,43.552,43.784,76.885c0.563,23.976,0.157,47.973,0.16,71.962c0.008,89.956,0.159,179.914-0.189,269.871
			c-0.041,10.861,2.245,15.512,14.358,15.364c49.82-0.616,99.653-0.366,149.48-0.158c8.465,0.033,13.739-0.915,13.686-11.681
			c-0.576-118.091,0.08-236.199-1.435-354.274c-0.66-51.679-6.227-103.183-26.146-151.873
			c-18.924-46.271-51.006-78.872-99.692-92.571c-52.765-14.847-105.95-13.479-158.456,1.526
			c-31.039,8.87-53.566,28.202-63.831,59.92C757.334,560.464,756.176,562.348,755.248,564.309z M310.083,796.6
			c0,98.678,0.167,197.358-0.225,296.035c-0.045,11.446,3.351,14.998,14.84,14.871c49.338-0.549,98.691-0.557,148.029,0.006
			c11.615,0.132,14.752-3.656,14.735-14.975c-0.295-196.896-0.298-393.793,0.005-590.689c0.018-11.442-3.347-15-14.836-14.868
			c-48.417,0.551-96.853,0.781-145.259-0.116c-14.231-0.263-17.682,4.064-17.601,17.85
			C310.344,602.005,310.076,699.305,310.083,796.6z M487.193,354.846c0.263-48.476-38.93-88.445-87.311-89.042
			c-49.042-0.603-89.503,39.061-89.751,87.979c-0.246,48.471,38.949,88.456,87.307,89.07
			C446.457,443.474,486.927,403.791,487.193,354.846z"/>
	</g>
</g>
</svg>
