<?xml version="1.0" encoding="utf-8"?>
<!-- Generator: Adobe Illustrator 16.0.0, SVG Export Plug-In . SVG Version: 6.00 Build 0)  -->
<!DOCTYPE svg PUBLIC "-//W3C//DTD SVG 1.1//EN" "http://www.w3.org/Graphics/SVG/1.1/DTD/svg11.dtd">
<svg version="1.1" id="Layer_1" xmlns="http://www.w3.org/2000/svg" xmlns:xlink="http://www.w3.org/1999/xlink" x="0px" y="0px"
	 width="1417.32px" height="1417.32px" viewBox="0 0 1417.32 1417.32" enable-background="new 0 0 1417.32 1417.32"
	 xml:space="preserve">
<title>Artboard 2</title>
<g>
	<path fill-rule="evenodd" clip-rule="evenodd" fill="#EF3724" d="M726.377,1417.32c-14.173,0-28.346,0-42.52,0
		c-2.773-0.771-5.504-1.949-8.327-2.255c-27.181-2.939-54.458-5.126-81.55-8.712c-41.871-5.539-82.308-17.134-122.142-30.95
		c-38.226-13.256-74.427-30.791-109.825-50.306c-56.143-30.951-106.966-69.066-151.497-114.9
		c-26.177-26.945-49.733-56.521-73.472-85.723c-25.775-31.705-45.207-67.572-63.381-103.965
		c-22.279-44.615-39.456-91.239-51.224-139.762c-8.96-36.95-15.834-74.249-18.447-112.265C2.946,753.249,1.347,738.048,0,722.833
		c0-11.811,0-23.62,0-35.433c0.778-3.984,1.854-7.932,2.291-11.952c3.117-28.652,4.931-57.505,9.367-85.949
		c10.469-67.11,31.537-131.062,61.47-191.991c36.013-73.304,83.578-138.328,141.931-195.457
		c34.857-34.124,72.814-64.423,114.086-90.37c47.992-30.175,98.566-54.878,152.542-72.949
		C538.441,19.73,596.361,7.796,655.978,3.528C667.069,2.733,678.108,1.196,689.172,0c11.22,0,22.441,0,33.661,0
		c4.04,0.647,8.06,1.492,12.123,1.907c31.011,3.175,62.264,4.794,92.998,9.682c68.149,10.843,133.108,32.39,194.895,63.174
		c58.847,29.318,112.677,66.013,161.353,110.301c53.991,49.122,99.385,105.15,136.083,168.209
		c22.111,37.996,40.819,77.582,55.299,119.153c20.537,58.962,34.167,119.314,37.964,181.774c0.675,11.103,2.486,22.133,3.773,33.2
		c0,14.173,0,28.346,0,42.519c-0.686,2.502-1.875,4.979-1.981,7.506c-1.758,41.774-7.514,82.907-16.161,123.895
		c-14.479,68.629-39.853,132.884-73.811,193.868c-28.333,50.885-61.915,98.124-103.702,138.974
		c-24.719,24.164-49.441,48.529-76.082,70.479c-41.49,34.181-87.586,61.488-136.303,84.38
		c-77.545,36.441-158.898,58.151-244.358,64.522C752.052,1414.5,739.224,1416.047,726.377,1417.32z M709.75,340.301
		c0-0.012,0-0.024,0-0.035c-133.739,0-267.478-0.003-401.215,0.012c-2.949,0.002-5.914,0.04-8.842,0.336
		c-24.275,2.453-36.44,15.723-36.447,40.203c-0.048,191.013-0.052,382.028,0.081,573.04c0.004,4.565,1.046,9.423,2.801,13.644
		c7.164,17.254,21.362,23.239,38.977,23.237c69.97-0.008,139.938-0.016,209.908-0.021c23.323-0.004,46.647-0.088,69.969,0.055
		c3.981,0.023,9.5-1.868,9.649,5.516c0.159,7.903-5.673,6.083-10.003,6.143c-12.986,0.177-25.981-0.081-38.968,0.104
		c-15.618,0.217-31.355-0.381-46.813,1.367c-18.529,2.095-32.723,19.81-31.094,36.938c2.102,22.135,13.957,35.259,36.188,35.291
		c136.69,0.208,273.38,0.149,410.072-0.012c24.938-0.028,41.84-24.844,33.506-48.34c-5.641-15.902-19.317-25.014-38.721-25.193
		c-25.684-0.24-51.37-0.109-77.055-0.191c-4.407-0.014-9.351,0.645-9.027-6.373c0.306-6.675,5.294-5.212,9.102-5.228
		c27.16-0.121,54.32-0.104,81.482-0.107c66.721-0.008,133.442-0.131,200.163,0.068c24.072,0.072,40.972-17.124,40.903-40.829
		c-0.521-187.178-0.29-374.352-0.294-561.528c0-4.429,0.18-8.87-0.097-13.282c-0.748-11.92-6.006-21.265-15.985-28.08
		c-9.358-6.393-19.88-6.737-30.565-6.737C974.866,340.302,842.309,340.301,709.75,340.301z"/>
	<path fill-rule="evenodd" clip-rule="evenodd" fill="#EF3724" d="M799.139,966.236c-0.29,3.074-0.638,5.083-0.643,7.095
		c-0.044,17.385-0.026,34.771-0.026,53.236c3.983,0.225,7.369,0.581,10.755,0.585c33.365,0.041,66.729-0.043,100.096,0.057
		c10.244,0.034,15.186,3.877,15.777,11.58c0.552,7.158-3.859,12.653-11.005,13.478c-2.335,0.271-4.719,0.135-7.079,0.135
		c-131.983,0-263.966-0.008-395.95-0.014c-2.362,0-4.738,0.118-7.082-0.098c-7.275-0.666-12.195-5.882-11.808-12.845
		c0.403-7.214,4.375-11.38,11.663-12.017c2.934-0.257,5.899-0.206,8.85-0.208c31.594-0.004,63.188,0.022,94.78-0.012
		c3.467-0.002,6.935-0.313,11.369-0.528c0-19.291,0.099-37.819-0.199-56.347c-0.022-1.385-2.68-3.416-4.458-3.921
		c-2.469-0.695-5.267-0.255-7.924-0.259c-99.503-0.008-199.008-0.004-298.511-0.021c-17.788-0.002-20.514-2.728-20.514-20.403
		c0.003-187.494,0.015-374.987,0.031-562.48c0.002-14.862,3.39-18.336,18.085-18.338c268.986-0.018,537.971-0.022,806.958-0.019
		c14.074,0,17.759,3.673,17.762,17.763c0.017,187.789,0.021,375.576,0.013,563.364c-0.001,17.165-2.985,20.154-19.954,20.158
		c-99.506,0.025-199.01,0.039-298.513,0.059C807.537,966.236,803.466,966.236,799.139,966.236z M670.665,665.576
		c-0.185,110.657,89.238,200.674,199.688,201.006c112.223,0.339,202.956-89.416,202.992-200.802
		c0.035-111.124-90.271-201.531-201.419-201.646C760.604,464.017,670.851,553.849,670.665,665.576z M496.979,584.828
		c23.611,0,47.221,0,70.832,0c22.135-0.001,44.27,0.091,66.404-0.044c10.54-0.064,17.253-6.772,16.042-15.523
		c-1.014-7.335-6.764-11.507-16.212-11.508c-91.194-0.016-182.391-0.002-273.585,0.005c-1.181,0-2.367-0.064-3.541,0.04
		c-6.733,0.597-10.852,4.325-12.175,10.85c-1.346,6.635,1.391,11.744,7.382,14.429c3.067,1.375,6.825,1.652,10.274,1.661
		C407.26,584.838,452.12,584.804,496.979,584.828z M496.74,678.884c0,0.011,0,0.021,0,0.028c43.677,0,87.354,0.007,131.032-0.006
		c3.54,0,7.115,0.193,10.609-0.239c7.093-0.878,11.272-5.284,11.796-12.232c0.527-6.99-3.127-11.95-9.902-13.87
		c-3.04-0.862-6.419-0.713-9.643-0.716c-57.547-0.035-115.094-0.024-172.642-0.028c-32.168,0-64.336,0.076-96.503-0.066
		c-7.057-0.031-12.989,1.557-16.038,8.476c-4.317,9.789,2.731,18.613,14.946,18.63C405.844,678.922,451.291,678.884,496.74,678.884z
		 M497.017,773.081c45.171,0,90.343,0.02,135.514-0.017c11.876-0.006,17.732-4.554,17.791-13.558
		c0.055-8.505-6.322-13.388-18.084-13.505c-13.552-0.131-27.107-0.049-40.661-0.043c-76.717,0.014-153.435,0-230.152,0.074
		c-10.609,0.01-17.16,5.52-17.084,13.803c0.076,8.612,5.964,13.209,17.165,13.211C406.675,773.073,451.846,773.059,497.017,773.081z
		"/>
	<path fill-rule="evenodd" clip-rule="evenodd" fill="#EF3724" d="M791.512,738.147c-2.651-19.761-5.208-38.833-7.872-58.703
		c59.288,0,116.595,0,176.514,0c-2.88,18.997-5.51,37.18-8.624,55.282c-0.248,1.436-3.848,3.272-5.896,3.278
		C894.984,738.188,844.331,738.147,791.512,738.147z"/>
	<path fill-rule="evenodd" clip-rule="evenodd" fill="#EF3724" d="M783.426,651.117c2.724-18.409,5.04-35.87,8.22-53.171
		c0.376-2.042,5.478-4.549,8.414-4.582c31.276-0.344,62.561-0.237,93.839-0.241c16.821-0.004,33.646-0.188,50.457,0.241
		c2.681,0.067,7.277,2.586,7.628,4.567c3.063,17.331,5.365,34.797,8.033,53.185C900.682,651.117,843.343,651.117,783.426,651.117z"
		/>
	<path fill-rule="evenodd" clip-rule="evenodd" fill="#EF3724" d="M800.705,765.675c47.843,0,94.384,0,142.289,0
		c-10.772,27.474-23.184,52.686-49.044,67.877c-18.448,10.833-37.939,7.818-56.165-8.244
		C819.888,809.536,809.205,788.992,800.705,765.675z"/>
	<path fill-rule="evenodd" clip-rule="evenodd" fill="#EF3724" d="M942.012,565.579c-47.228,0-93.705,0-141.552,0
		c10.833-27.615,23.125-53.182,49.344-68.371c16.583-9.606,33.387-7.604,49.145,3.112
		C916.883,512.516,936.772,542.333,942.012,565.579z"/>
	<path fill-rule="evenodd" clip-rule="evenodd" fill="#EF3724" d="M698.176,678.95c18.967,0,36.853-0.104,54.734,0.181
		c1.563,0.023,4.259,2.432,4.444,3.975c2.11,17.478,3.843,35.002,5.623,52.52c0.048,0.486-0.488,1.024-1.234,2.487
		c-14.709,0-29.91,0.129-45.103-0.178c-1.728-0.035-4.211-2.185-4.98-3.944C704.211,716.932,699.727,699.109,698.176,678.95z"/>
	<path fill-rule="evenodd" clip-rule="evenodd" fill="#EF3724" d="M1045.171,679.375c-0.921,19.65-6.188,37.295-13.204,54.479
		c-0.734,1.798-3.195,4.082-4.897,4.117c-15.516,0.318-31.04,0.186-47.103,0.186c2.393-20.148,4.662-39.249,6.98-58.782
		C1006.114,679.375,1025.109,679.375,1045.171,679.375z"/>
	<path fill-rule="evenodd" clip-rule="evenodd" fill="#EF3724" d="M763.542,593.125c-2.395,20.008-4.629,38.666-6.945,58.019
		c-19.163,0-38.424,0-58.317,0c1.262-19.301,6.094-37.368,13.652-54.723c0.693-1.593,3.594-3.12,5.493-3.152
		C732.429,593.012,747.442,593.125,763.542,593.125z"/>
	<path fill-rule="evenodd" clip-rule="evenodd" fill="#EF3724" d="M1047.779,651.394c-22.602,0-41.641,0-60.881,0
		c-2.256-18.997-4.49-37.844-6.886-58.036c16.165,0,32.204-0.073,48.24,0.146c1.225,0.018,3.116,1.896,3.526,3.261
		C1037.067,614.356,1042.143,632.013,1047.779,651.394z"/>
	<path fill-rule="evenodd" clip-rule="evenodd" fill="#EF3724" d="M944.687,823.496c5.638-10.479,10.967-19.51,15.438-28.945
		c4.391-9.27,7.91-18.954,11.993-28.897c13.173,0,26.646,0,41.907,0C995.76,791.532,973.383,810.19,944.687,823.496z"/>
	<path fill-rule="evenodd" clip-rule="evenodd" fill="#EF3724" d="M730.278,565.762c10.132-20.394,45.152-49.606,66.534-56.963
		c-7.527,16.826-15.462,34.741-23.632,52.545c-0.829,1.807-3.045,4.177-4.673,4.224
		C755.951,565.919,743.383,565.762,730.278,565.762z"/>
	<path fill-rule="evenodd" clip-rule="evenodd" fill="#EF3724" d="M729.88,765.337c13.593,0,25.905-0.189,38.2,0.207
		c1.853,0.059,4.414,2.479,5.303,4.425c7.928,17.34,15.55,34.816,22.933,51.502C784.104,820.807,743.301,788.828,729.88,765.337z"/>
	<path fill-rule="evenodd" clip-rule="evenodd" fill="#EF3724" d="M1014.76,565.769c-14.376,0-26.412,0.181-38.433-0.18
		c-1.985-0.059-4.847-2.042-5.698-3.879c-8.195-17.698-16.049-35.554-24.012-53.395
		C973.454,520.729,995.559,539.598,1014.76,565.769z"/>
</g>
</svg>
